<svg id="Logo" xmlns="http://www.w3.org/2000/svg" viewBox="0 0 2323.64 756.57"><defs><style>.cls-1{fill:#e30613;}.cls-2{fill:#fff;}.cls-3{fill:#1d1d1b;}</style></defs><title>rockitlogo</title><rect class="cls-1" y="6.81" width="478.84" height="748.83"/><path class="cls-2" d="M210,1479.62l-1.29-129.35,38-.38.43,43.75,228.26-2.28.42,41.85-228.26,2.28.44,43.75Z" transform="translate(-100.43 -790.34)"/><path class="cls-2" d="M320.34,1289.05l-.57-57.45,38-.38.57,57.45,78-.78-.72-72.28,38-.38,1.14,114.13L208.53,1332l-1.14-114.13,38.05-.38.72,72.28Z" transform="translate(-100.43 -790.34)"/><path class="cls-2" d="M472.08,1053.93l.42,42.23-48.24,7.71.51,51.36,48.39,6.74.38,38.43-266.72-40-.61-61.25Zm-83.5,96.33-.4-40.32L253.7,1131.06v.76Z" transform="translate(-100.43 -790.34)"/><path class="cls-2" d="M393.78,947v-.76L204.42,920l-.58-58.21,266.3-2.66.4,39.57-191,1.9v.77l191.25,26.24.4,39.57-188,32.31v.76l188.31-1.88.36,36.52-266.3,2.66L205,979.36Z" transform="translate(-100.43 -790.34)"/><path class="cls-3" d="M840.53,1393c-5.11-15.32-8.52-24.69-8.52-73.21v-93.64c0-55.33-18.72-75.76-61.29-75.76H738.37V1393H644.73V797.15H786.05c97,0,138.75,45.12,138.75,137.06V981c0,61.29-19.58,100.45-61.29,120v1.7c46.82,19.58,62.14,63.84,62.14,126v91.93c0,29,.86,50.23,10.22,72.36ZM738.37,882.28v183H775c34.9,0,56.18-15.32,56.18-63V943.57c0-42.56-14.47-61.29-47.67-61.29Z" transform="translate(-100.43 -790.34)"/><path class="cls-3" d="M979.27,940.16c0-95.34,50.23-149.82,142.17-149.82s142.16,54.48,142.16,149.82V1250c0,95.34-50.23,149.82-142.16,149.82S979.27,1345.37,979.27,1250ZM1072.91,1256c0,42.56,18.73,58.73,48.53,58.73S1170,1298.55,1170,1256V934.21c0-42.57-18.73-58.74-48.52-58.74s-48.53,16.17-48.53,58.74Z" transform="translate(-100.43 -790.34)"/><path class="cls-3" d="M1595.59,1170.86V1250c0,95.34-47.68,149.82-139.61,149.82s-139.61-54.48-139.61-149.82V940.16c0-95.34,47.67-149.82,139.61-149.82s139.61,54.48,139.61,149.82v57.89h-88.54V934.21c0-42.57-18.72-58.74-48.52-58.74S1410,891.64,1410,934.21V1256c0,42.56,18.73,57.88,48.52,57.88s48.52-15.32,48.52-57.88v-85.13Z" transform="translate(-100.43 -790.34)"/><path class="cls-3" d="M1775.19,1155.54,1746.25,1210v183H1652.6V797.15h93.65v257.94h1.7l120.88-257.94h93.64l-130.25,265.6L1962.47,1393h-96.2Z" transform="translate(-100.43 -790.34)"/><path class="cls-1" d="M2000.15,797.15h93.64V1393h-93.64Z" transform="translate(-100.43 -790.34)"/><path class="cls-1" d="M2134.64,797.15h289.43v85.13h-97.89V1393h-93.64V882.28h-97.9Z" transform="translate(-100.43 -790.34)"/><path class="cls-3" d="M648.69,1465.2h12.69V1546H648.69Z" transform="translate(-100.43 -790.34)"/><path class="cls-3" d="M666.92,1465.2h39.24v11.54H692.89V1546h-12.7v-69.25H666.92Z" transform="translate(-100.43 -790.34)"/><path class="cls-3" d="M746.67,1464.27c12.35,0,18.7,7.39,18.7,20.32v2.53h-12v-3.34c0-5.77-2.31-8-6.35-8s-6.35,2.2-6.35,8,2.54,10.27,10.85,17.54c10.62,9.35,14,16,14,25.28,0,12.92-6.47,20.31-18.93,20.31s-18.93-7.39-18.93-20.31v-5h12v5.77c0,5.77,2.54,7.85,6.58,7.85s6.58-2.08,6.58-7.85-2.54-10.27-10.85-17.54c-10.62-9.35-14-16-14-25.27C728,1471.66,734.32,1464.27,746.67,1464.27Z" transform="translate(-100.43 -790.34)"/><path class="cls-3" d="M769.07,1465.2h39.24v11.54H795V1546H782.34v-69.25H769.07Z" transform="translate(-100.43 -790.34)"/><path class="cls-3" d="M812.81,1484.59c0-12.93,6.81-20.32,19.27-20.32s19.28,7.39,19.28,20.32v42c0,12.92-6.81,20.31-19.28,20.31s-19.27-7.39-19.27-20.31Zm12.69,42.81c0,5.77,2.54,8,6.58,8s6.58-2.2,6.58-8v-43.62c0-5.77-2.54-8-6.58-8s-6.58,2.2-6.58,8Z" transform="translate(-100.43 -790.34)"/><path class="cls-3" d="M886.1,1546c-.7-2.08-1.16-3.35-1.16-9.93v-12.7c0-7.5-2.54-10.27-8.31-10.27h-4.38V1546h-12.7V1465.2h19.16c13.16,0,18.81,6.11,18.81,18.58v6.35c0,8.31-2.65,13.61-8.31,16.27v.23c6.35,2.65,8.43,8.66,8.43,17.08v12.47c0,3.92.11,6.8,1.38,9.81Zm-13.85-69.25v24.81h5c4.73,0,7.62-2.08,7.62-8.54v-8c0-5.77-2-8.31-6.47-8.31Z" transform="translate(-100.43 -790.34)"/><path class="cls-3" d="M918.64,1499.24h17.43v11.54H918.64v23.66h21.93V1546H906V1465.2h34.62v11.54H918.64Z" transform="translate(-100.43 -790.34)"/><path class="cls-3" d="M1667.05,1465.2h12.7V1546h-12.7Z" transform="translate(-100.43 -790.34)"/><path class="cls-3" d="M1685.29,1465.2h39.24v11.54h-13.27V1546h-12.7v-69.25h-13.27Z" transform="translate(-100.43 -790.34)"/><path class="cls-3" d="M1774.74,1522.56h.23l8.54-57.36h17.65V1546h-12v-57.94h-.23l-8.54,57.94h-12l-9.24-57.13h-.23V1546h-11.08V1465.2h17.66Z" transform="translate(-100.43 -790.34)"/><path class="cls-3" d="M1851.49,1546h-12.81l-2.2-14.66H1820.9l-2.19,14.66h-11.66L1820,1465.2h18.58Zm-29-25.63h12.23l-6-40.85h-.23Z" transform="translate(-100.43 -790.34)"/><path class="cls-3" d="M1868.92,1487.47h-.24V1546h-11.42V1465.2h15.93l12.81,48.35h.23V1465.2h11.31V1546h-13Z" transform="translate(-100.43 -790.34)"/><path class="cls-3" d="M1947.74,1546h-12.81l-2.19-14.66h-15.58L1915,1546h-11.66l12.92-80.79h18.59Zm-29-25.63H1931l-6-40.85h-.23Z" transform="translate(-100.43 -790.34)"/><path class="cls-3" d="M1972.56,1501h17.77v25.63c0,12.92-6.46,20.31-18.92,20.31s-18.93-7.39-18.93-20.31v-42c0-12.93,6.46-20.32,18.93-20.32s18.92,7.39,18.92,20.32v7.84h-12v-8.65c0-5.77-2.54-8-6.58-8s-6.58,2.2-6.58,8v43.62c0,5.77,2.54,7.85,6.58,7.85s6.58-2.08,6.58-7.85v-14.88h-5.77Z" transform="translate(-100.43 -790.34)"/><path class="cls-3" d="M2011.23,1499.24h17.42v11.54h-17.42v23.66h21.92V1546h-34.62V1465.2h34.62v11.54h-21.92Z" transform="translate(-100.43 -790.34)"/><path class="cls-3" d="M2041,1465.2h20.09c12.69,0,18.92,7,18.92,20V1526c0,12.93-6.23,20-18.92,20H2041Zm12.7,11.54v57.7h7.15c4,0,6.47-2.07,6.47-7.84v-42c0-5.78-2.43-7.85-6.47-7.85Z" transform="translate(-100.43 -790.34)"/><path class="cls-3" d="M2123.06,1464.27c12.35,0,18.7,7.39,18.7,20.32v2.53h-12v-3.34c0-5.77-2.31-8-6.35-8s-6.35,2.2-6.35,8,2.54,10.27,10.85,17.54c10.62,9.35,14,16,14,25.28,0,12.92-6.47,20.31-18.93,20.31s-18.93-7.39-18.93-20.31v-5h12v5.77c0,5.77,2.54,7.85,6.58,7.85s6.58-2.08,6.58-7.85-2.54-10.27-10.85-17.54c-10.62-9.35-14-16-14-25.27C2104.37,1471.66,2110.71,1464.27,2123.06,1464.27Z" transform="translate(-100.43 -790.34)"/><path class="cls-3" d="M2161.84,1499.24h17.43v11.54h-17.43v23.66h21.93V1546h-34.62V1465.2h34.62v11.54h-21.93Z" transform="translate(-100.43 -790.34)"/><path class="cls-3" d="M2218.17,1546c-.69-2.08-1.16-3.35-1.16-9.93v-12.7c0-7.5-2.54-10.27-8.31-10.27h-4.38V1546h-12.7V1465.2h19.16c13.16,0,18.81,6.11,18.81,18.58v6.35c0,8.31-2.65,13.61-8.31,16.27v.23c6.35,2.65,8.43,8.66,8.43,17.08v12.47c0,3.92.11,6.8,1.38,9.81Zm-13.85-69.25v24.81h5c4.73,0,7.62-2.08,7.62-8.54v-8c0-5.77-2-8.31-6.47-8.31Z" transform="translate(-100.43 -790.34)"/><path class="cls-3" d="M2256.83,1531.1h.23l9.58-65.9h11.66L2265.83,1546h-18.92l-12.47-80.79h12.81Z" transform="translate(-100.43 -790.34)"/><path class="cls-3" d="M2284.19,1465.2h12.69V1546h-12.69Z" transform="translate(-100.43 -790.34)"/><path class="cls-3" d="M2342.93,1515.86v10.74c0,12.92-6.46,20.31-18.93,20.31s-18.92-7.39-18.92-20.31v-42c0-12.93,6.46-20.32,18.92-20.32s18.93,7.39,18.93,20.32v7.84h-12v-8.65c0-5.77-2.54-8-6.58-8s-6.58,2.2-6.58,8v43.62c0,5.77,2.54,7.85,6.58,7.85s6.58-2.08,6.58-7.85v-11.54Z" transform="translate(-100.43 -790.34)"/><path class="cls-3" d="M2363.36,1499.24h17.43v11.54h-17.43v23.66h21.93V1546h-34.63V1465.2h34.63v11.54h-21.93Z" transform="translate(-100.43 -790.34)"/><path class="cls-3" d="M1056.71,1465.2h20.08c12.7,0,18.93,7,18.93,20V1526c0,12.93-6.23,20-18.93,20h-20.08Zm12.69,11.54v57.7h7.16c4,0,6.46-2.07,6.46-7.84v-42c0-5.78-2.42-7.85-6.46-7.85Z" transform="translate(-100.43 -790.34)"/><path class="cls-3" d="M1116.49,1499.24h17.43v11.54h-17.43v23.66h21.93V1546H1103.8V1465.2h34.62v11.54h-21.93Z" transform="translate(-100.43 -790.34)"/><path class="cls-3" d="M1165.31,1531.1h.23l9.58-65.9h11.66L1174.32,1546h-18.93l-12.47-80.79h12.81Z" transform="translate(-100.43 -790.34)"/><path class="cls-3" d="M1205.36,1499.24h17.43v11.54h-17.43v23.66h21.93V1546h-34.62V1465.2h34.62v11.54h-21.93Z" transform="translate(-100.43 -790.34)"/><path class="cls-3" d="M1235.14,1465.2h12.7v69.24h20.89V1546h-33.59Z" transform="translate(-100.43 -790.34)"/><path class="cls-3" d="M1273.23,1484.59c0-12.93,6.81-20.32,19.27-20.32s19.28,7.39,19.28,20.32v42c0,12.92-6.81,20.31-19.28,20.31s-19.27-7.39-19.27-20.31Zm12.69,42.81c0,5.77,2.54,8,6.58,8s6.58-2.2,6.58-8v-43.62c0-5.77-2.54-8-6.58-8s-6.58,2.2-6.58,8Z" transform="translate(-100.43 -790.34)"/><path class="cls-3" d="M1357.6,1485.16v10.51c0,12.92-6.23,20-18.93,20h-6V1546H1320V1465.2h18.7C1351.37,1465.2,1357.6,1472.24,1357.6,1485.16Zm-24.93-8.42v27.35h6c4,0,6.23-1.85,6.23-7.62v-12.12c0-5.77-2.19-7.61-6.23-7.61Z" transform="translate(-100.43 -790.34)"/><path class="cls-3" d="M1390.26,1522.56h.23l8.54-57.36h17.66V1546h-12v-57.94h-.23l-8.54,57.94h-12l-9.23-57.13h-.23V1546h-11.08V1465.2H1381Z" transform="translate(-100.43 -790.34)"/><path class="cls-3" d="M1438.62,1499.24h17.43v11.54h-17.43v23.66h21.93V1546h-34.63V1465.2h34.63v11.54h-21.93Z" transform="translate(-100.43 -790.34)"/><path class="cls-3" d="M1479.94,1487.47h-.23V1546h-11.43V1465.2h15.93l12.81,48.35h.23V1465.2h11.31V1546h-13Z" transform="translate(-100.43 -790.34)"/><path class="cls-3" d="M1514,1465.2h39.24v11.54H1540V1546h-12.7v-69.25H1514Z" transform="translate(-100.43 -790.34)"/><path class="cls-3" d="M1010.18,1493.85v30.64H979.54v-30.64Z" transform="translate(-100.43 -790.34)"/><path class="cls-3" d="M1616.75,1493.85v30.64h-30.64v-30.64Z" transform="translate(-100.43 -790.34)"/></svg>